<?xml version="1.0" encoding="UTF-8"?>
<svg width="32" height="32" fill="none" version="1.1" viewBox="0 0 32 32" xml:space="preserve" xmlns="http://www.w3.org/2000/svg"><path d="m16 31c8.2843 0 15-6.7157 15-15 0-8.2843-6.7157-15-15-15-8.2843 0-15 6.7157-15 15 0 8.2843 6.7157 15 15 15z" fill="#38b0bc" stroke="#000" stroke-width="2"/><g transform="translate(-1)" stroke-width="0"><ellipse cx="17" cy="16.05" rx="14.037" ry="14.028" fill="#d4a8ff"/><path d="m29.156 9.0361a14.037 14.028 0 0 1 1e-6 14.028 14.037 14.028 0 0 1-12.156 7.014v-14.028z" fill="#bb74ff"/><path d="m4.8436 9.0361a14.037 14.028 0 0 1 12.156-7.014 14.037 14.028 0 0 1 12.156 7.014l-12.156 7.014z" fill="#9125f9"/></g><g transform="translate(-.36129)"><text x="11.673785" y="20.294922" fill="#000000" font-family="Arial" font-size="12px" font-weight="900" stroke="#000000" stroke-width="0" style="font-variant-caps:normal;font-variant-east-asian:normal;font-variant-ligatures:normal;font-variant-numeric:normal" xml:space="preserve"><tspan x="11.673785" y="20.294922">A</tspan></text></g></svg>
